<?xml version="1.0" encoding="iso-8859-1"?>
<!-- Generator: Adobe Illustrator 19.0.0, SVG Export Plug-In . SVG Version: 6.00 Build 0)  -->
<svg version="1.1" id="Capa_1" xmlns="http://www.w3.org/2000/svg" xmlns:xlink="http://www.w3.org/1999/xlink" x="0px" y="0px"
	 viewBox="0 0 480.001 480.001" style="enable-background:new 0 0 480.001 480.001;" xml:space="preserve">
<path style="fill:#808080;" d="M8.001,8.001h280v408h-280V8.001z"/>
<path style="fill:#E6E6E6;" d="M448,200.001H312l-48,32v-32h-24c-13.255,0-24-10.745-24-24v-112c0-13.255,10.745-24,24-24h208
	c13.255,0,24,10.745,24,24v112C472,189.255,461.255,200.001,448,200.001z"/>
<path style="fill:#0071BC;" d="M240.001,40.001h208c13.255,0,24,10.745,24,24v40l0,0h-256l0,0v-40
	C216.001,50.746,226.746,40.001,240.001,40.001z"/>
<path style="fill:#FBB03B;" d="M176.001,472.001l-168-56v-408l168,56V472.001z"/>
<path style="fill:#29ABE2;" d="M448,304.001H312l-48-32v32h-24c-13.255,0-24,10.745-24,24v80c0,13.255,10.745,24,24,24h208
	c13.255,0,24-10.745,24-24v-80C472,314.746,461.255,304.001,448,304.001z"/>
<circle style="fill:#F15A24;" cx="120.001" cy="248.001" r="24"/>
<path d="M120.001,280.001c17.673,0,32-14.327,32-32c0-17.673-14.327-32-32-32s-32,14.327-32,32
	C88.001,265.674,102.327,280.001,120.001,280.001z M120.001,232.001c8.837,0,16,7.163,16,16s-7.163,16-16,16s-16-7.163-16-16
	S111.164,232.001,120.001,232.001z"/>
<path d="M448,32.001H296v-24c0-4.418-3.582-8-8-8h-280c-4.369-0.049-7.951,3.454-8,7.823C0,7.883,0,7.942,0.001,8.001v408
	c0.003,3.442,2.206,6.496,5.472,7.584l168,56c0.814,0.276,1.668,0.416,2.528,0.416c4.418,0,8-3.582,8-8v-48h28.448
	c5.672,9.867,16.171,15.964,27.552,16h208c17.673,0,32-14.327,32-32v-80c0-17.673-14.327-32-32-32H314.4l-18.4-12.28v-63.44
	l18.4-12.28H448c17.673,0,32-14.327,32-32v-112C480,46.327,465.674,32.001,448,32.001z M464,64.001v32h-240v-32
	c0-8.837,7.163-16,16-16h208C456.837,48.001,464,55.164,464,64.001z M168.001,460.897l-152-50.664V19.105l152,50.664V460.897z
	 M312,312.001h136c8.837,0,16,7.163,16,16v80c0,8.837-7.163,16-16,16h-208c-8.837,0-16-7.163-16-16v-80c0-8.837,7.163-16,16-16h24
	c4.418,0,8-3.582,8-8v-17.056l35.56,23.712C308.876,311.531,310.421,311.998,312,312.001z M280,273.057l-11.56-7.712
	c-3.675-2.452-8.643-1.461-11.095,2.215c-0.877,1.315-1.345,2.86-1.345,4.441v24h-16c-17.673,0-32,14.327-32,32v80h-24v-344
	c-0.003-3.442-2.206-6.496-5.472-7.584L57.289,16.001H280v16h-40c-17.673,0-32,14.327-32,32v112c0,17.673,14.327,32,32,32h16v24
	c-0.001,4.418,3.581,8.001,7.999,8.001c1.581,0,3.126-0.468,4.441-1.345l11.56-7.712V273.057z M448,192.001H312
	c-1.58,0.003-3.124,0.47-4.44,1.344L272,217.057v-17.056c0-4.418-3.582-8-8-8h-24c-8.837,0-16-7.163-16-16v-64h240v64
	C464,184.837,456.837,192.001,448,192.001z"/>
<path d="M248.001,160.001h192v16h-192V160.001z"/>
<path d="M264,128.001h16v16h-16V128.001z"/>
<path d="M296,128.001h144v16H296V128.001z"/>
<path d="M240.001,64.001h16v16h-16V64.001z"/>
<path d="M272,64.001h16v16h-16V64.001z"/>
<path d="M304,64.001h16v16h-16V64.001z"/>
<path d="M266.344,330.345l-16,16c-3.123,3.124-3.123,8.188,0,11.312l16,16l11.312-11.312l-10.344-10.344l10.344-10.344
	L266.344,330.345z"/>
<path d="M325.656,373.657l16-16c3.123-3.124,3.123-8.188,0-11.312l-16-16l-11.312,11.312l10.344,10.344l-10.344,10.344
	L325.656,373.657z"/>
<path d="M280.407,373.441l16.009-48.001l15.178,5.062l-16.009,48.001L280.407,373.441z"/>
<path d="M360,344.001h16v16h-16V344.001z"/>
<path d="M248.001,392.001h16v16h-16V392.001z"/>
<path d="M280,392.001h160v16H280V392.001z"/>
<path d="M392,344.001h16v16h-16V344.001z"/>
<path d="M424,344.001h16v16h-16V344.001z"/>
<g>
</g>
<g>
</g>
<g>
</g>
<g>
</g>
<g>
</g>
<g>
</g>
<g>
</g>
<g>
</g>
<g>
</g>
<g>
</g>
<g>
</g>
<g>
</g>
<g>
</g>
<g>
</g>
<g>
</g>
</svg>
