<?xml version="1.0" encoding="iso-8859-1"?>
<!-- Generator: Adobe Illustrator 19.0.0, SVG Export Plug-In . SVG Version: 6.00 Build 0)  -->
<svg version="1.1" id="Capa_1" xmlns="http://www.w3.org/2000/svg" xmlns:xlink="http://www.w3.org/1999/xlink" x="0px" y="0px"
	 viewBox="0 0 480 480" style="enable-background:new 0 0 480 480;" xml:space="preserve">
<path style="fill:#E6E6E6;" d="M104,12h272v456H104V12z"/>
<path style="fill:#B3B3B3;" d="M376,84h96v376h-96V84z"/>
<path style="fill:#CCCCCC;" d="M8,132h96v328H8V132z"/>
<path style="fill:#3FA9F5;" d="M192,380h96v88h-96V380z"/>
<g>
	<path style="fill:#06AAE9;" d="M136,44h48v48h-48V44z"/>
	<path style="fill:#06AAE9;" d="M216,44h48v48h-48V44z"/>
	<path style="fill:#06AAE9;" d="M296,44h48v48h-48V44z"/>
	<path style="fill:#06AAE9;" d="M136,124h48v48h-48V124z"/>
	<path style="fill:#06AAE9;" d="M216,124h48v48h-48V124z"/>
	<path style="fill:#06AAE9;" d="M296,124h48v48h-48V124z"/>
	<path style="fill:#06AAE9;" d="M136,204h48v48h-48V204z"/>
	<path style="fill:#06AAE9;" d="M216,204h48v48h-48V204z"/>
	<path style="fill:#06AAE9;" d="M296,204h48v48h-48V204z"/>
	<path style="fill:#06AAE9;" d="M136,284h48v48h-48V284z"/>
	<path style="fill:#06AAE9;" d="M216,284h48v48h-48V284z"/>
	<path style="fill:#06AAE9;" d="M296,284h48v48h-48V284z"/>
	<path style="fill:#06AAE9;" d="M408,116h32v32h-32V116z"/>
	<path style="fill:#06AAE9;" d="M408,180h32v32h-32V180z"/>
	<path style="fill:#06AAE9;" d="M408,244h32v32h-32V244z"/>
	<path style="fill:#06AAE9;" d="M408,308h32v32h-32V308z"/>
	<path style="fill:#06AAE9;" d="M408,372h32v32h-32V372z"/>
</g>
<path style="fill:#0378A3;" d="M240,380h48v88h-48V380z"/>
<path d="M472,76h-88V12c0-4.418-3.582-8-8-8H104c-4.418,0-8,3.582-8,8v112H8c-4.418,0-8,3.582-8,8v328c0,4.418,3.582,8,8,8
	s8-3.582,8-8V140h80v328c0,4.418,3.582,8,8,8h272c4.418,0,8-3.582,8-8V92h80v368c0,4.418,3.582,8,8,8s8-3.582,8-8V84
	C480,79.582,476.418,76,472,76z M232,460h-32v-72h32V460z M280,460h-32v-72h32V460z M368,460h-72v-80c0-4.418-3.582-8-8-8h-96
	c-4.418,0-8,3.582-8,8v80h-72V20h256V460z"/>
<path d="M136,100h48c4.418,0,8-3.582,8-8V44c0-4.418-3.582-8-8-8h-48c-4.418,0-8,3.582-8,8v48C128,96.418,131.582,100,136,100z
	 M144,52h32v32h-32V52z"/>
<path d="M216,100h48c4.418,0,8-3.582,8-8V44c0-4.418-3.582-8-8-8h-48c-4.418,0-8,3.582-8,8v48C208,96.418,211.582,100,216,100z
	 M224,52h32v32h-32V52z"/>
<path d="M296,100h48c4.418,0,8-3.582,8-8V44c0-4.418-3.582-8-8-8h-48c-4.418,0-8,3.582-8,8v48C288,96.418,291.582,100,296,100z
	 M304,52h32v32h-32V52z"/>
<path d="M136,180h48c4.418,0,8-3.582,8-8v-48c0-4.418-3.582-8-8-8h-48c-4.418,0-8,3.582-8,8v48C128,176.418,131.582,180,136,180z
	 M144,132h32v32h-32V132z"/>
<path d="M216,180h48c4.418,0,8-3.582,8-8v-48c0-4.418-3.582-8-8-8h-48c-4.418,0-8,3.582-8,8v48C208,176.418,211.582,180,216,180z
	 M224,132h32v32h-32V132z"/>
<path d="M296,180h48c4.418,0,8-3.582,8-8v-48c0-4.418-3.582-8-8-8h-48c-4.418,0-8,3.582-8,8v48C288,176.418,291.582,180,296,180z
	 M304,132h32v32h-32V132z"/>
<path d="M136,260h48c4.418,0,8-3.582,8-8v-48c0-4.418-3.582-8-8-8h-48c-4.418,0-8,3.582-8,8v48C128,256.418,131.582,260,136,260z
	 M144,212h32v32h-32V212z"/>
<path d="M216,260h48c4.418,0,8-3.582,8-8v-48c0-4.418-3.582-8-8-8h-48c-4.418,0-8,3.582-8,8v48C208,256.418,211.582,260,216,260z
	 M224,212h32v32h-32V212z"/>
<path d="M296,260h48c4.418,0,8-3.582,8-8v-48c0-4.418-3.582-8-8-8h-48c-4.418,0-8,3.582-8,8v48C288,256.418,291.582,260,296,260z
	 M304,212h32v32h-32V212z"/>
<path d="M136,340h48c4.418,0,8-3.582,8-8v-48c0-4.418-3.582-8-8-8h-48c-4.418,0-8,3.582-8,8v48C128,336.418,131.582,340,136,340z
	 M144,292h32v32h-32V292z"/>
<path d="M216,340h48c4.418,0,8-3.582,8-8v-48c0-4.418-3.582-8-8-8h-48c-4.418,0-8,3.582-8,8v48C208,336.418,211.582,340,216,340z
	 M224,292h32v32h-32V292z"/>
<path d="M296,340h48c4.418,0,8-3.582,8-8v-48c0-4.418-3.582-8-8-8h-48c-4.418,0-8,3.582-8,8v48C288,336.418,291.582,340,296,340z
	 M304,292h32v32h-32V292z"/>
<path d="M40,156h8c4.418,0,8,3.582,8,8v8c0,4.418-3.582,8-8,8h-8c-4.418,0-8-3.582-8-8v-8C32,159.582,35.582,156,40,156z"/>
<path d="M72,156h8c4.418,0,8,3.582,8,8v8c0,4.418-3.582,8-8,8h-8c-4.418,0-8-3.582-8-8v-8C64,159.582,67.582,156,72,156z"/>
<path d="M40,188h8c4.418,0,8,3.582,8,8v8c0,4.418-3.582,8-8,8h-8c-4.418,0-8-3.582-8-8v-8C32,191.582,35.582,188,40,188z"/>
<path d="M72,188h8c4.418,0,8,3.582,8,8v8c0,4.418-3.582,8-8,8h-8c-4.418,0-8-3.582-8-8v-8C64,191.582,67.582,188,72,188z"/>
<path d="M40,220h8c4.418,0,8,3.582,8,8v8c0,4.418-3.582,8-8,8h-8c-4.418,0-8-3.582-8-8v-8C32,223.582,35.582,220,40,220z"/>
<path d="M72,220h8c4.418,0,8,3.582,8,8v8c0,4.418-3.582,8-8,8h-8c-4.418,0-8-3.582-8-8v-8C64,223.582,67.582,220,72,220z"/>
<path d="M40,252h8c4.418,0,8,3.582,8,8v8c0,4.418-3.582,8-8,8h-8c-4.418,0-8-3.582-8-8v-8C32,255.582,35.582,252,40,252z"/>
<path d="M72,252h8c4.418,0,8,3.582,8,8v8c0,4.418-3.582,8-8,8h-8c-4.418,0-8-3.582-8-8v-8C64,255.582,67.582,252,72,252z"/>
<path d="M40,284h8c4.418,0,8,3.582,8,8v8c0,4.418-3.582,8-8,8h-8c-4.418,0-8-3.582-8-8v-8C32,287.582,35.582,284,40,284z"/>
<path d="M72,284h8c4.418,0,8,3.582,8,8v8c0,4.418-3.582,8-8,8h-8c-4.418,0-8-3.582-8-8v-8C64,287.582,67.582,284,72,284z"/>
<path d="M40,316h8c4.418,0,8,3.582,8,8v8c0,4.418-3.582,8-8,8h-8c-4.418,0-8-3.582-8-8v-8C32,319.582,35.582,316,40,316z"/>
<path d="M72,316h8c4.418,0,8,3.582,8,8v8c0,4.418-3.582,8-8,8h-8c-4.418,0-8-3.582-8-8v-8C64,319.582,67.582,316,72,316z"/>
<path d="M40,348h8c4.418,0,8,3.582,8,8v8c0,4.418-3.582,8-8,8h-8c-4.418,0-8-3.582-8-8v-8C32,351.582,35.582,348,40,348z"/>
<path d="M72,348h8c4.418,0,8,3.582,8,8v8c0,4.418-3.582,8-8,8h-8c-4.418,0-8-3.582-8-8v-8C64,351.582,67.582,348,72,348z"/>
<path d="M40,380h8c4.418,0,8,3.582,8,8v8c0,4.418-3.582,8-8,8h-8c-4.418,0-8-3.582-8-8v-8C32,383.582,35.582,380,40,380z"/>
<path d="M72,380h8c4.418,0,8,3.582,8,8v8c0,4.418-3.582,8-8,8h-8c-4.418,0-8-3.582-8-8v-8C64,383.582,67.582,380,72,380z"/>
<path d="M40,412h8c4.418,0,8,3.582,8,8v8c0,4.418-3.582,8-8,8h-8c-4.418,0-8-3.582-8-8v-8C32,415.582,35.582,412,40,412z"/>
<path d="M72,412h8c4.418,0,8,3.582,8,8v8c0,4.418-3.582,8-8,8h-8c-4.418,0-8-3.582-8-8v-8C64,415.582,67.582,412,72,412z"/>
<path d="M408,156h32c4.418,0,8-3.582,8-8v-32c0-4.418-3.582-8-8-8h-32c-4.418,0-8,3.582-8,8v32C400,152.418,403.582,156,408,156z
	 M416,124h16v16h-16V124z"/>
<path d="M400,212c0,4.418,3.582,8,8,8h32c4.418,0,8-3.582,8-8v-32c0-4.418-3.582-8-8-8h-32c-4.418,0-8,3.582-8,8V212z M416,188h16
	v16h-16V188z"/>
<path d="M400,276c0,4.418,3.582,8,8,8h32c4.418,0,8-3.582,8-8v-32c0-4.418-3.582-8-8-8h-32c-4.418,0-8,3.582-8,8V276z M416,252h16
	v16h-16V252z"/>
<path d="M400,340c0,4.418,3.582,8,8,8h32c4.418,0,8-3.582,8-8v-32c0-4.418-3.582-8-8-8h-32c-4.418,0-8,3.582-8,8V340z M416,316h16
	v16h-16V316z"/>
<path d="M400,404c0,4.418,3.582,8,8,8h32c4.418,0,8-3.582,8-8v-32c0-4.418-3.582-8-8-8h-32c-4.418,0-8,3.582-8,8V404z M416,380h16
	v16h-16V380z"/>
<g>
</g>
<g>
</g>
<g>
</g>
<g>
</g>
<g>
</g>
<g>
</g>
<g>
</g>
<g>
</g>
<g>
</g>
<g>
</g>
<g>
</g>
<g>
</g>
<g>
</g>
<g>
</g>
<g>
</g>
</svg>
