<?xml version="1.0" encoding="UTF-8" standalone="no"?>
<svg
   data-v-fde0c5aa=""
   viewBox="0 0 50.722382 50.722382"
   class="iconLeft"
   version="1.1"
   id="svg18"
   sodipodi:docname="icon.svg"
   width="50.722382"
   height="50.722382"
   inkscape:version="1.1 (c68e22c387, 2021-05-23)"
   xmlns:inkscape="http://www.inkscape.org/namespaces/inkscape"
   xmlns:sodipodi="http://sodipodi.sourceforge.net/DTD/sodipodi-0.dtd"
   xmlns="http://www.w3.org/2000/svg"
   xmlns:svg="http://www.w3.org/2000/svg">
  <sodipodi:namedview
     id="namedview20"
     pagecolor="#505050"
     bordercolor="#eeeeee"
     borderopacity="1"
     inkscape:pageshadow="0"
     inkscape:pageopacity="0"
     inkscape:pagecheckerboard="0"
     showgrid="false"
     inkscape:zoom="2.7466667"
     inkscape:cx="64.987864"
     inkscape:cy="22.754854"
     inkscape:window-width="1920"
     inkscape:window-height="1013"
     inkscape:window-x="-9"
     inkscape:window-y="-9"
     inkscape:window-maximized="1"
     inkscape:current-layer="svg18"
     width="50.72238px" />
  <!---->
  <defs
     data-v-fde0c5aa=""
     id="defs2">
    <!---->
  </defs>
  <defs
     data-v-fde0c5aa=""
     id="defs6">
    <!---->
  </defs>
  <defs
     data-v-fde0c5aa=""
     id="defs11">
    <!---->
  </defs>
  <g
     data-v-fde0c5aa=""
     id="b0e30c9c-382f-418f-9674-09c70dff2f5a"
     stroke="none"
     fill="#0d9ecc"
     transform="matrix(0.61185021,0,0,0.61185021,-5.9961325,-6.149095)"
     inkscape:export-filename="C:\Users\MichalBrezak\Box Sync\Personal\MB Themes\Logo - Osclass\logo-small.png"
     inkscape:export-xdpi="67.123489"
     inkscape:export-ydpi="67.123489">
    <path
       d="m 34.1,34.8 c -1.4,0 -2.8,0.7 -3.9,2 -1.1,1.2 -1.8,2.9 -1.8,4 0.1,2.1 1.9,5.2 5.1,5.2 h 0.2 c 2.3,-0.1 4.1,-0.8 5.2,-2.1 0.8,-1 1.3,-2.2 1.2,-3.5 0,-1.4 -0.6,-5.6 -6,-5.6 z M 69.2,36 c -1.3,-0.9 -3.1,-1.5 -4.1,-1.4 -2.1,0.3 -5,2.4 -4.7,5.6 v 0.2 c 0.3,2.3 1.2,4 2.6,5 1.1,0.7 2.3,1.1 3.6,0.9 1.3,-0.2 5.5,-1.1 4.9,-6.5 C 71.4,38.2 70.6,37 69.2,36 Z"
       id="path13" />
    <path
       d="M 89.5,14.1 9.8,15.7 v 73.2 l 82.9,-0.7 z m -73.1,36.6 1.3,-19.9 66.2,-2.2 2.6,21.2 z"
       id="path15" />
  </g>
  <!---->
</svg>
