<?xml version="1.0" standalone="no"?>
<!DOCTYPE svg PUBLIC "-//W3C//DTD SVG 20010904//EN"
 "http://www.w3.org/TR/2001/REC-SVG-20010904/DTD/svg10.dtd">
<svg version="1.0" xmlns="http://www.w3.org/2000/svg"
 width="470.000000pt" height="470.000000pt" viewBox="0 0 470.000000 470.000000"
 preserveAspectRatio="xMidYMid meet">
<metadata>
Created by potrace 1.11, written by Peter Selinger 2001-2013
</metadata>
<g transform="translate(0.000000,470.000000) scale(0.100000,-0.100000)"
fill="#000000" stroke="none">
<path d="M2075 4675 c-408 -52 -739 -198 -970 -430 -178 -177 -298 -398 -360
-658 -39 -165 -48 -277 -42 -505 10 -406 75 -643 299 -1092 258 -519 663
-1126 1202 -1802 77 -98 143 -178 146 -178 8 0 274 334 417 525 604 801 1007
1496 1151 1981 66 220 99 539 82 770 -31 410 -160 715 -405 959 -220 220 -507
356 -885 421 -132 22 -490 28 -635 9z m-235 -504 c0 -5 -54 -166 -121 -357
-66 -192 -121 -351 -121 -354 -4 -19 19 -64 44 -85 90 -76 244 -61 314 30 14
19 24 41 21 49 -5 13 105 681 118 714 3 9 39 12 130 12 l126 0 -1 -375 c-2
-429 -6 -406 86 -451 71 -35 150 -37 211 -6 48 25 83 65 83 96 0 11 -27 176
-60 366 -33 189 -60 350 -60 357 0 11 26 13 122 11 l123 -3 32 -90 c96 -272
206 -604 208 -628 5 -68 96 -130 193 -131 59 0 107 18 148 56 12 11 25 15 28
10 20 -33 48 -193 53 -308 9 -217 -26 -385 -122 -579 -155 -312 -423 -526
-770 -616 -78 -20 -114 -23 -270 -23 -162 0 -189 3 -276 26 -431 117 -737 427
-850 863 -21 79 -24 113 -24 275 0 161 3 196 23 272 17 66 21 92 13 107 -24
44 -29 32 283 634 l71 137 122 0 c68 0 123 -4 123 -9z m1640 -166 c64 -93 171
-250 238 -348 67 -98 122 -188 122 -200 0 -36 -37 -85 -81 -108 -105 -53 -289
7 -289 94 0 11 -81 178 -180 372 -99 194 -180 356 -180 359 0 4 57 5 127 4
l127 -3 116 -170z"/>
</g>
</svg>
