<?xml version="1.0" standalone="no"?>
<!DOCTYPE svg PUBLIC "-//W3C//DTD SVG 20010904//EN"
 "http://www.w3.org/TR/2001/REC-SVG-20010904/DTD/svg10.dtd">
<svg version="1.0" xmlns="http://www.w3.org/2000/svg"
 width="700.000000pt" height="700.000000pt" viewBox="0 0 700.000000 700.000000"
 preserveAspectRatio="xMidYMid meet">
<metadata>
Created by potrace 1.11, written by Peter Selinger 2001-2013
</metadata>
<g transform="translate(0.000000,700.000000) scale(0.100000,-0.100000)"
fill="#000000" stroke="none">
<path d="M3230 6989 c-867 -74 -1640 -438 -2238 -1054 -556 -572 -891 -1296
-973 -2100 -15 -154 -16 -517 0 -665 89 -855 453 -1608 1059 -2191 890 -858
2179 -1183 3362 -849 241 69 404 132 623 241 337 168 600 356 875 624 594 578
944 1295 1044 2140 16 139 16 595 0 730 -79 654 -300 1220 -671 1720 -148 199
-381 446 -564 598 -573 476 -1234 744 -1990 806 -145 12 -385 12 -527 0z m681
-952 c209 -54 376 -150 524 -301 216 -218 325 -482 325 -786 0 -290 -106 -559
-302 -766 l-49 -52 85 -47 c349 -196 592 -526 671 -910 23 -112 31 -282 16
-328 -29 -86 -103 -137 -199 -137 -51 0 -67 5 -108 33 -67 45 -86 87 -96 216
-19 249 -107 442 -277 611 -87 86 -191 155 -305 200 -134 54 -199 64 -408 61
-201 -2 -235 5 -286 52 -71 66 -83 189 -27 268 43 60 89 81 205 90 401 34 687
352 667 743 -16 340 -262 613 -600 666 -299 48 -602 -110 -738 -385 -79 -162
-74 -70 -74 -1365 l0 -1155 28 -90 c104 -332 351 -566 684 -647 128 -31 304
-29 434 5 124 32 253 98 364 185 95 75 152 99 209 86 158 -34 225 -205 130
-331 -38 -50 -209 -174 -321 -231 -201 -103 -378 -145 -608 -145 -162 0 -266
15 -409 60 -155 49 -334 148 -457 254 l-56 49 -5 -188 c-5 -166 -8 -196 -31
-267 -61 -187 -183 -327 -359 -410 -184 -88 -386 -85 -578 7 -110 53 -236 176
-293 285 -69 133 -97 307 -61 391 39 93 138 145 236 122 87 -21 157 -105 158
-191 0 -68 29 -138 75 -185 55 -55 105 -76 180 -77 102 -2 195 56 236 148 18
38 19 112 19 1625 0 872 5 1662 10 1755 12 220 38 327 119 490 143 287 390
495 687 580 130 37 193 44 349 40 109 -2 162 -9 236 -28z"/>
</g>
</svg>
